<svg width="36" height="36" viewBox="0 0 36 36" fill="none" xmlns="http://www.w3.org/2000/svg">
<rect width="36" height="36" rx="18" fill="#7152F3"/>
<path fill-rule="evenodd" clip-rule="evenodd" d="M25.2917 13.8333C25.2917 14.1785 25.0118 14.4583 24.6667 14.4583L11.3333 14.4583C10.9882 14.4583 10.7083 14.1785 10.7083 13.8333C10.7083 13.4882 10.9882 13.2083 11.3333 13.2083L24.6667 13.2083C25.0118 13.2083 25.2917 13.4882 25.2917 13.8333Z" fill="white"/>
<path fill-rule="evenodd" clip-rule="evenodd" d="M25.2917 18C25.2917 18.3452 25.0118 18.625 24.6667 18.625L11.3333 18.625C10.9882 18.625 10.7083 18.3452 10.7083 18C10.7083 17.6548 10.9882 17.375 11.3333 17.375L24.6667 17.375C25.0118 17.375 25.2917 17.6548 25.2917 18Z" fill="white"/>
<path fill-rule="evenodd" clip-rule="evenodd" d="M25.2917 22.1667C25.2917 22.5118 25.0118 22.7917 24.6667 22.7917L11.3333 22.7917C10.9882 22.7917 10.7083 22.5118 10.7083 22.1667C10.7083 21.8215 10.9882 21.5417 11.3333 21.5417L24.6667 21.5417C25.0118 21.5417 25.2917 21.8215 25.2917 22.1667Z" fill="white"/>
</svg>
