<svg width="36" height="36" viewBox="0 0 36 36" fill="none" xmlns="http://www.w3.org/2000/svg">
<rect x="0.5" y="0.5" width="35" height="35" rx="17.5" fill="#7152F3" fill-opacity="0.08"/>
<rect x="0.5" y="0.5" width="35" height="35" rx="17.5" stroke="#7152F3"/>
<path d="M13.7864 15.8627C14.0359 13.6606 15.8473 12 18 12C20.1527 12 21.9641 13.6606 22.2136 15.8627L22.4435 17.8923C22.5006 18.3967 22.705 18.8712 23.0297 19.2534C23.7186 20.0643 23.1594 21.3333 22.1132 21.3333H13.8867C12.8405 21.3333 12.2814 20.0643 12.9703 19.2534C13.295 18.8712 13.4994 18.3967 13.5565 17.8923L13.7864 15.8627Z" stroke="#7152F3" stroke-width="1.5" stroke-linejoin="round"/>
<path d="M20 22.6667C19.7089 23.4435 18.9234 24 18 24C17.0766 24 16.2911 23.4435 16 22.6667" stroke="#7152F3" stroke-width="1.5" stroke-linecap="round"/>
</svg>
