<svg width="25" height="24" viewBox="0 0 25 24" fill="none" xmlns="http://www.w3.org/2000/svg">
<rect x="0.5" width="24" height="24" rx="6" fill="#8D75F5"/>
<g clip-path="url(#clip0_649_4894)">
<g filter="url(#filter0_d_649_4894)">
<path d="M11.1875 5.625H13.8125C14.1231 5.625 14.375 5.87684 14.375 6.1875V7.5H10.625V6.1875C10.625 5.87684 10.8768 5.625 11.1875 5.625ZM9.5 6.1875V7.5H8.1875C6.8413 7.5 5.75 8.5913 5.75 9.9375V11.0625C5.75 11.7874 6.33763 12.375 7.0625 12.375H11V12C11 11.5858 11.3358 11.25 11.75 11.25H13.25C13.6642 11.25 14 11.5858 14 12V12.375H17.9375C18.6624 12.375 19.25 11.7874 19.25 11.0625V9.9375C19.25 8.5913 18.1587 7.5 16.8125 7.5H15.5V6.1875C15.5 5.25552 14.7444 4.5 13.8125 4.5H11.1875C10.2555 4.5 9.5 5.25552 9.5 6.1875ZM19.25 13.1168C18.8712 13.3594 18.4207 13.5 17.9375 13.5H14C14 13.9142 13.6642 14.25 13.25 14.25H11.75C11.3358 14.25 11 13.9142 11 13.5H7.0625C6.57926 13.5 6.12886 13.3594 5.75 13.1168V15.5625C5.75 16.9087 6.8413 18 8.1875 18H16.8125C18.1587 18 19.25 16.9087 19.25 15.5625V13.1168Z" fill="white"/>
</g>
</g>
<defs>
<filter id="filter0_d_649_4894" x="3.68214" y="4.5" width="17.6357" height="17.6357" filterUnits="userSpaceOnUse" color-interpolation-filters="sRGB">
<feFlood flood-opacity="0" result="BackgroundImageFix"/>
<feColorMatrix in="SourceAlpha" type="matrix" values="0 0 0 0 0 0 0 0 0 0 0 0 0 0 0 0 0 0 127 0" result="hardAlpha"/>
<feOffset dy="2.06786"/>
<feGaussianBlur stdDeviation="1.03393"/>
<feComposite in2="hardAlpha" operator="out"/>
<feColorMatrix type="matrix" values="0 0 0 0 0.186275 0 0 0 0 0.0176471 0 0 0 0 0.382353 0 0 0 0.4 0"/>
<feBlend mode="normal" in2="BackgroundImageFix" result="effect1_dropShadow_649_4894"/>
<feBlend mode="normal" in="SourceGraphic" in2="effect1_dropShadow_649_4894" result="shape"/>
</filter>
<clipPath id="clip0_649_4894">
<rect width="18" height="18" fill="white" transform="translate(3.5 3)"/>
</clipPath>
</defs>
</svg>
