<svg width="24" height="24" viewBox="0 0 24 24" fill="none" xmlns="http://www.w3.org/2000/svg">
<rect width="24" height="24" rx="6" fill="#8D75F5"/>
<g clip-path="url(#clip0_649_4911)">
<g filter="url(#filter0_d_649_4911)">
<path d="M16.5 15C16.3517 15 16.2067 14.956 16.0833 14.8736C15.96 14.7912 15.8639 14.6741 15.8071 14.537C15.7504 14.4 15.7355 14.2492 15.7645 14.1037C15.7934 13.9582 15.8649 13.8246 15.9698 13.7197L17.6895 12L15.9698 10.2802C15.8991 10.2108 15.8429 10.1281 15.8043 10.0369C15.7658 9.94561 15.7457 9.84763 15.7453 9.74858C15.7448 9.64953 15.764 9.55137 15.8017 9.45978C15.8394 9.36818 15.8949 9.28496 15.9649 9.21492C16.035 9.14488 16.1182 9.0894 16.2098 9.05171C16.3014 9.01401 16.3995 8.99483 16.4986 8.99528C16.5976 8.99573 16.6956 9.01579 16.7869 9.05432C16.8781 9.09285 16.9608 9.14907 17.0303 9.21974L19.2803 11.4697C19.3499 11.5394 19.4052 11.622 19.4429 11.713C19.4806 11.804 19.5 11.9015 19.5 12C19.5 12.0985 19.4806 12.196 19.4429 12.287C19.4052 12.378 19.3499 12.4607 19.2803 12.5303L17.0303 14.7803C16.9607 14.8501 16.8781 14.9054 16.7871 14.9431C16.6961 14.9809 16.5985 15.0002 16.5 15Z" fill="white"/>
</g>
<path d="M14.25 12.75C14.0511 12.75 13.8603 12.671 13.7197 12.5303C13.579 12.3897 13.5 12.1989 13.5 12C13.5 11.8011 13.579 11.6103 13.7197 11.4697C13.8603 11.329 14.0511 11.25 14.25 11.25H18.75C18.9489 11.25 19.1397 11.329 19.2803 11.4697C19.421 11.6103 19.5 11.8011 19.5 12C19.5 12.1989 19.421 12.3897 19.2803 12.5303C19.1397 12.671 18.9489 12.75 18.75 12.75H14.25Z" fill="white"/>
<g filter="url(#filter1_d_649_4911)">
<path d="M15.75 8.0625C15.6008 8.06246 15.4578 8.00318 15.3523 7.8977C15.2468 7.79222 15.1875 7.64917 15.1875 7.5V6.75C15.1874 6.7003 15.1676 6.65266 15.1325 6.61752C15.0973 6.58238 15.0497 6.5626 15 6.5625H12C11.8508 6.5625 11.7077 6.50324 11.6023 6.39775C11.4968 6.29226 11.4375 6.14918 11.4375 6C11.4375 5.85082 11.4968 5.70774 11.6023 5.60225C11.7077 5.49676 11.8508 5.4375 12 5.4375H15C15.348 5.43792 15.6816 5.57634 15.9276 5.82239C16.1737 6.06844 16.3121 6.40203 16.3125 6.75V7.5C16.3125 7.64917 16.2532 7.79222 16.1477 7.8977C16.0422 8.00318 15.8992 8.06246 15.75 8.0625Z" fill="white"/>
</g>
<path d="M15 18.5625H12C11.8508 18.5625 11.7077 18.5032 11.6023 18.3977C11.4968 18.2923 11.4375 18.1492 11.4375 18C11.4375 17.8508 11.4968 17.7077 11.6023 17.6023C11.7077 17.4968 11.8508 17.4375 12 17.4375H15C15.0497 17.4374 15.0973 17.4176 15.1325 17.3825C15.1676 17.3473 15.1874 17.2997 15.1875 17.25V16.5C15.1875 16.3508 15.2468 16.2077 15.3523 16.1023C15.4577 15.9968 15.6008 15.9375 15.75 15.9375C15.8992 15.9375 16.0423 15.9968 16.1477 16.1023C16.2532 16.2077 16.3125 16.3508 16.3125 16.5V17.25C16.3121 17.598 16.1737 17.9316 15.9276 18.1776C15.6816 18.4237 15.348 18.5621 15 18.5625Z" fill="white"/>
<g filter="url(#filter2_d_649_4911)">
<path d="M12.0168 4.47583C11.8481 4.35434 11.653 4.2746 11.4475 4.24315C11.2421 4.21171 11.032 4.22945 10.8347 4.29492L5.58547 6.04542C5.32389 6.13219 5.09632 6.29922 4.93511 6.52274C4.7739 6.74627 4.68726 7.01493 4.6875 7.29053V16.7095C4.68711 16.985 4.7736 17.2536 4.93468 17.4772C5.09576 17.7007 5.32322 17.8678 5.58472 17.9546L10.8347 19.7051C11.0321 19.7707 11.2422 19.7884 11.4478 19.7569C11.6533 19.7254 11.8485 19.6456 12.0172 19.5239C12.1859 19.4023 12.3233 19.2424 12.4181 19.0573C12.5129 18.8722 12.5624 18.6672 12.5625 18.4592V5.54078C12.5623 5.33275 12.5128 5.12774 12.4179 4.9426C12.323 4.75746 12.1856 4.59748 12.0168 4.47583ZM10.3125 12.75C10.3125 12.8992 10.2532 13.0423 10.1477 13.1477C10.0423 13.2532 9.89919 13.3125 9.75 13.3125C9.60082 13.3125 9.45774 13.2532 9.35225 13.1477C9.24677 13.0423 9.1875 12.8992 9.1875 12.75V11.25C9.1875 11.1008 9.24677 10.9577 9.35225 10.8523C9.45774 10.7468 9.60082 10.6875 9.75 10.6875C9.89919 10.6875 10.0423 10.7468 10.1477 10.8523C10.2532 10.9577 10.3125 11.1008 10.3125 11.25V12.75Z" fill="white"/>
</g>
</g>
<defs>
<filter id="filter0_d_649_4911" x="13.6774" y="8.99527" width="7.89041" height="10.1404" filterUnits="userSpaceOnUse" color-interpolation-filters="sRGB">
<feFlood flood-opacity="0" result="BackgroundImageFix"/>
<feColorMatrix in="SourceAlpha" type="matrix" values="0 0 0 0 0 0 0 0 0 0 0 0 0 0 0 0 0 0 127 0" result="hardAlpha"/>
<feOffset dy="2.06786"/>
<feGaussianBlur stdDeviation="1.03393"/>
<feComposite in2="hardAlpha" operator="out"/>
<feColorMatrix type="matrix" values="0 0 0 0 0.186275 0 0 0 0 0.0176471 0 0 0 0 0.382353 0 0 0 0.4 0"/>
<feBlend mode="normal" in2="BackgroundImageFix" result="effect1_dropShadow_649_4911"/>
<feBlend mode="normal" in="SourceGraphic" in2="effect1_dropShadow_649_4911" result="shape"/>
</filter>
<filter id="filter1_d_649_4911" x="9.36964" y="5.4375" width="9.01071" height="6.76071" filterUnits="userSpaceOnUse" color-interpolation-filters="sRGB">
<feFlood flood-opacity="0" result="BackgroundImageFix"/>
<feColorMatrix in="SourceAlpha" type="matrix" values="0 0 0 0 0 0 0 0 0 0 0 0 0 0 0 0 0 0 127 0" result="hardAlpha"/>
<feOffset dy="2.06786"/>
<feGaussianBlur stdDeviation="1.03393"/>
<feComposite in2="hardAlpha" operator="out"/>
<feColorMatrix type="matrix" values="0 0 0 0 0.186275 0 0 0 0 0.0176471 0 0 0 0 0.382353 0 0 0 0.4 0"/>
<feBlend mode="normal" in2="BackgroundImageFix" result="effect1_dropShadow_649_4911"/>
<feBlend mode="normal" in="SourceGraphic" in2="effect1_dropShadow_649_4911" result="shape"/>
</filter>
<filter id="filter2_d_649_4911" x="2.61964" y="4.22803" width="12.0107" height="19.6798" filterUnits="userSpaceOnUse" color-interpolation-filters="sRGB">
<feFlood flood-opacity="0" result="BackgroundImageFix"/>
<feColorMatrix in="SourceAlpha" type="matrix" values="0 0 0 0 0 0 0 0 0 0 0 0 0 0 0 0 0 0 127 0" result="hardAlpha"/>
<feOffset dy="2.06786"/>
<feGaussianBlur stdDeviation="1.03393"/>
<feComposite in2="hardAlpha" operator="out"/>
<feColorMatrix type="matrix" values="0 0 0 0 0.186275 0 0 0 0 0.0176471 0 0 0 0 0.382353 0 0 0 0.4 0"/>
<feBlend mode="normal" in2="BackgroundImageFix" result="effect1_dropShadow_649_4911"/>
<feBlend mode="normal" in="SourceGraphic" in2="effect1_dropShadow_649_4911" result="shape"/>
</filter>
<clipPath id="clip0_649_4911">
<rect width="18" height="18" fill="white" transform="translate(3 3)"/>
</clipPath>
</defs>
</svg>
