<svg width="24" height="24" viewBox="0 0 24 24" fill="none" xmlns="http://www.w3.org/2000/svg">
<rect width="24" height="24" rx="6" fill="#8D75F5"/>
<g clip-path="url(#clip0_649_4878)">
<g filter="url(#filter0_d_649_4878)">
<path d="M18.5344 17.1802L18.5336 17.1918C18.4877 17.954 17.9727 18.6052 17.2433 18.8312C15.6502 19.3247 13.8737 19.6 12.0004 19.6C10.1276 19.6 8.35162 19.3244 6.75841 18.8313C6.0288 18.6055 5.51377 17.9539 5.46837 17.1915L5.46652 17.1603C5.44851 16.9065 5.43771 16.6508 5.43771 16.3969C5.43771 15.8226 5.48452 15.25 5.57094 14.6757C5.65377 14.1572 6.02646 13.7016 6.5234 13.5162C7.06174 13.3091 7.61988 13.1219 8.11861 12.832L9.31953 12.1694C9.5878 12.1694 9.81646 12.3549 9.87768 12.6033L11.2077 15.5235C11.252 15.6208 11.3964 15.5969 11.4071 15.4906L11.5755 13.8061C11.3487 13.7232 11.183 13.5162 11.183 13.2677V12.9976C11.183 12.8518 11.2244 12.7492 11.3073 12.6448C11.5341 12.7078 11.7826 12.7492 12.0112 12.7492C12.2381 12.7492 12.4866 12.7078 12.7152 12.6448C12.798 12.7492 12.8395 12.8734 12.8395 12.9976V13.2677C12.8395 13.5162 12.6738 13.7232 12.4451 13.8061L12.6136 15.4906C12.6242 15.5969 12.7687 15.6208 12.813 15.5235L14.143 12.6033C14.206 12.3549 14.4329 12.1694 14.7029 12.1694L15.9039 12.832C16.4008 13.1219 16.9607 13.3091 17.4991 13.5162C17.996 13.7016 18.3471 14.1572 18.4299 14.6955C18.5542 15.5237 18.5956 16.3519 18.5344 17.1802Z" fill="white"/>
</g>
<g filter="url(#filter1_d_649_4878)">
<path d="M9.17715 8.66239C9.26004 8.75166 9.31512 8.86314 9.33546 8.98325C9.63626 10.7594 10.9285 11.7506 12.0108 11.7506C13.0958 11.7506 14.3918 10.7544 14.6884 8.98714C14.707 8.8761 14.7536 8.77033 14.8293 8.68694C14.9278 8.57829 14.9728 8.31361 14.9728 8.02578C14.9728 7.68896 15.0497 7.21344 14.8959 7.07475C14.8382 7.03513 14.7805 7.03513 14.6843 7.05494C14.4343 5.43027 13.6264 4.39999 12.0108 4.39999C10.3951 4.39999 9.58732 5.43027 9.33728 7.05494C9.24111 7.01531 9.16418 7.03513 9.12571 7.07475C8.97184 7.21344 9.04877 7.66914 9.04877 8.02578C9.03429 8.29435 9.07434 8.55168 9.17715 8.66239Z" fill="white"/>
</g>
</g>
<defs>
<filter id="filter0_d_649_4878" x="3.36985" y="12.1694" width="17.2603" height="11.5663" filterUnits="userSpaceOnUse" color-interpolation-filters="sRGB">
<feFlood flood-opacity="0" result="BackgroundImageFix"/>
<feColorMatrix in="SourceAlpha" type="matrix" values="0 0 0 0 0 0 0 0 0 0 0 0 0 0 0 0 0 0 127 0" result="hardAlpha"/>
<feOffset dy="2.06786"/>
<feGaussianBlur stdDeviation="1.03393"/>
<feComposite in2="hardAlpha" operator="out"/>
<feColorMatrix type="matrix" values="0 0 0 0 0.186275 0 0 0 0 0.0176471 0 0 0 0 0.382353 0 0 0 0.4 0"/>
<feBlend mode="normal" in2="BackgroundImageFix" result="effect1_dropShadow_649_4878"/>
<feBlend mode="normal" in="SourceGraphic" in2="effect1_dropShadow_649_4878" result="shape"/>
</filter>
<filter id="filter1_d_649_4878" x="6.96168" y="4.39999" width="10.0982" height="11.4863" filterUnits="userSpaceOnUse" color-interpolation-filters="sRGB">
<feFlood flood-opacity="0" result="BackgroundImageFix"/>
<feColorMatrix in="SourceAlpha" type="matrix" values="0 0 0 0 0 0 0 0 0 0 0 0 0 0 0 0 0 0 127 0" result="hardAlpha"/>
<feOffset dy="2.06786"/>
<feGaussianBlur stdDeviation="1.03393"/>
<feComposite in2="hardAlpha" operator="out"/>
<feColorMatrix type="matrix" values="0 0 0 0 0.186275 0 0 0 0 0.0176471 0 0 0 0 0.382353 0 0 0 0.4 0"/>
<feBlend mode="normal" in2="BackgroundImageFix" result="effect1_dropShadow_649_4878"/>
<feBlend mode="normal" in="SourceGraphic" in2="effect1_dropShadow_649_4878" result="shape"/>
</filter>
<clipPath id="clip0_649_4878">
<rect width="16" height="16" fill="white" transform="translate(4 4)"/>
</clipPath>
</defs>
</svg>
